<svg class="svg-icon" style="width: 1em;height: 1em;vertical-align: middle;fill: currentColor;overflow: hidden;" viewBox="0 0 1024 1024" version="1.1" xmlns="http://www.w3.org/2000/svg"><path d="M0.04352 496.578755C0.04352 211.173955 223.589283 0 511.980381 0s511.936861 211.173955 511.936861 496.578755-223.545763 496.578755-511.936861 496.578756c-51.6203 0-101.534144-6.825825-148.035076-19.624247a40.954949 40.954949 0 0 0-27.303299 2.13307L234.681248 1020.46081a40.954949 40.954949 0 0 1-57.592897-36.262194l-2.986298-91.295407a41.381563 41.381563 0 0 0-13.65165-29.009756A485.913404 485.913404 0 0 1 0.04352 496.578755z m354.94289-93.428477l-150.168146 238.903869c-14.931492 22.610545 13.65165 48.634002 34.982353 31.996053l161.686725-122.438232c11.091965-8.532281 25.596843-8.532281 37.115422 0l119.451935 89.588951c35.83558 26.876685 87.029266 17.064562 110.919653-20.477475l150.168146-238.903868c14.931492-22.610545-13.65165-48.207388-34.982352-31.996054l-161.686726 122.438232c-10.665351 8.532281-25.596843 8.532281-36.688808 0l-119.451934-89.58895a76.790529 76.790529 0 0 0-111.346268 20.477474z"  /></svg>