<svg class="svg-icon" style="width: 1em; height: 1em;vertical-align: middle;fill: currentColor;overflow: hidden;" viewBox="0 0 1024 1024" version="1.1" xmlns="http://www.w3.org/2000/svg"><path d="M765.123 572.646c-33.209 0-61.271-28.057-61.271-61.27s28.057-61.272 61.27-61.272 61.272 28.058 61.272 61.271c0 34.36-26.911 61.271-61.271 61.271z m-253.123 0c-33.213 0-61.271-28.057-61.271-61.27s28.058-61.272 61.271-61.272c33.208 0 61.271 28.058 61.271 61.271 0 34.36-26.91 61.271-61.271 61.271z m-253.123 0c-33.213 0-61.27-28.057-61.27-61.27s28.057-61.272 61.27-61.272 61.271 28.058 61.271 61.271c-0.005 34.36-26.915 61.271-61.27 61.271z" fill="#2C2C2C" /></svg>